<?xml version="1.0" encoding="utf-8"?><svg viewBox="0 0 31 30" xmlns="http://www.w3.org/2000/svg" xmlns:xlink="http://www.w3.org/1999/xlink"><style>:root>svg{display:none}:root>svg:target{display:block}</style><svg viewBox="0 0 12 14" id="datatime" xmlns="http://www.w3.org/2000/svg"><path d="M10.667 1.75h-.584V.583H8.917V1.75H3.083V.583H1.917V1.75h-.584A1.17 1.17 0 00.167 2.917v9.333a1.17 1.17 0 001.166 1.167h9.334a1.17 1.17 0 001.166-1.167V2.917a1.17 1.17 0 00-1.166-1.167zm0 10.5H1.333V4.667h9.334v7.583z"/></svg><svg viewBox="0 0 31 30" id="facebook" xmlns="http://www.w3.org/2000/svg"><path d="M15.91.06C7.677.06.94 6.81.94 15.12c0 7.515 5.48 13.753 12.635 14.88V19.48H9.773v-4.36h3.802V11.8c0-3.773 2.23-5.847 5.659-5.847 1.631 0 3.338.285 3.338.285V9.95h-1.886c-1.857 0-2.44 1.157-2.44 2.345v2.825h4.161l-.673 4.36h-3.488V30a14.955 14.955 0 009.056-5.095 15.067 15.067 0 003.578-9.785C30.88 6.81 24.144.06 15.91.06z"/></svg><svg viewBox="0 0 30 30" id="instagram" xmlns="http://www.w3.org/2000/svg"><path d="M12.129 15a2.871 2.871 0 105.742 0 2.871 2.871 0 00-5.742 0z"/><path d="M8.286 9.92c.138-.374.358-.712.644-.99.278-.286.616-.507.99-.645.304-.118.76-.258 1.6-.296.908-.041 1.18-.05 3.48-.05s2.573.008 3.48.05c.84.038 1.297.178 1.6.296.374.138.713.359.99.645.286.278.506.616.645.99.118.303.258.76.296 1.6.042.908.05 1.18.05 3.48s-.008 2.572-.05 3.48c-.038.84-.178 1.296-.296 1.6a2.67 2.67 0 01-.645.99 2.667 2.667 0 01-.99.645c-.303.118-.76.258-1.6.296-.907.042-1.18.05-3.48.05s-2.572-.008-3.48-.05c-.84-.038-1.296-.178-1.6-.296a2.852 2.852 0 01-1.634-1.635c-.118-.304-.259-.76-.297-1.6-.041-.908-.05-1.18-.05-3.48s.009-2.572.05-3.48c.038-.84.178-1.296.297-1.6zM15 19.423a4.423 4.423 0 100-8.846 4.423 4.423 0 000 8.846zm-4.598-7.987a1.034 1.034 0 100-2.068 1.034 1.034 0 000 2.068z"/><path d="M15 0c8.283 0 15 6.717 15 15 0 8.283-6.717 15-15 15-8.283 0-15-6.717-15-15C0 6.717 6.717 0 15 0zM6.439 18.551c.041.917.187 1.543.4 2.09a4.404 4.404 0 002.52 2.52c.547.213 1.173.358 2.09.4.918.042 1.212.052 3.55.052 2.34 0 2.633-.01 3.552-.052.917-.042 1.543-.187 2.09-.4a4.22 4.22 0 001.526-.994c.438-.43.777-.95.994-1.525.213-.548.358-1.174.4-2.09.042-.92.052-1.213.052-3.552 0-2.34-.01-2.633-.052-3.551-.041-.917-.187-1.543-.4-2.09a4.22 4.22 0 00-.994-1.526 4.218 4.218 0 00-1.525-.994c-.548-.213-1.174-.358-2.09-.4-.92-.042-1.213-.052-3.552-.052-2.34 0-2.633.01-3.551.052-.917.042-1.543.187-2.09.4a4.222 4.222 0 00-1.527.994 4.22 4.22 0 00-.993 1.525c-.213.548-.359 1.174-.4 2.09-.042.92-.052 1.213-.052 3.552 0 2.34.01 2.633.052 3.551z"/></svg><svg viewBox="0 0 18 18" id="phone" xmlns="http://www.w3.org/2000/svg"><path d="M16.343 12.098a10.49 10.49 0 01-3.236-.513.896.896 0 00-.926.22l-1.44 1.806c-2.593-1.238-5.023-3.575-6.315-6.261l1.787-1.522a.935.935 0 00.22-.935 10.223 10.223 0 01-.513-3.236.916.916 0 00-.907-.907H1.84C1.346.75.75.97.75 1.657c0 8.516 7.086 15.593 15.593 15.593.65 0 .907-.578.907-1.082v-3.162a.916.916 0 00-.907-.908z"/></svg><svg viewBox="0 0 25 25" id="search" xmlns="http://www.w3.org/2000/svg"><path d="M24.911 22.814l-5.057-4.457c1.487-1.98 2.292-4.403 2.292-6.95 0-3.05-1.156-5.909-3.245-8.065C16.812 1.186 14.03 0 11.073 0c-2.957 0-5.74 1.19-7.829 3.342C1.152 5.494 0 8.357 0 11.407c0 3.045 1.155 5.912 3.244 8.064 2.09 2.156 4.869 3.343 7.829 3.343 2.473 0 4.82-.83 6.743-2.358l5.058 4.453a.3.3 0 00.214.091.294.294 0 00.214-.091l1.61-1.654a.312.312 0 00.088-.22.319.319 0 00-.089-.221zM16.92 17.43c-1.565 1.608-3.639 2.494-5.846 2.494-2.207 0-4.282-.886-5.847-2.494a8.603 8.603 0 01-2.42-6.023c0-2.274.86-4.415 2.42-6.023 1.565-1.608 3.64-2.494 5.847-2.494 2.207 0 4.285.882 5.846 2.494a8.602 8.602 0 012.422 6.023c0 2.274-.86 4.414-2.422 6.023z"/></svg><svg viewBox="0 0 31 30" id="vk" xmlns="http://www.w3.org/2000/svg"><path d="M15.85 0C7.584 0 .88 6.702.88 14.97s6.703 14.97 14.97 14.97c8.268 0 14.97-6.702 14.97-14.97S24.119 0 15.85 0zm7.594 16.59c.698.68 1.436 1.322 2.062 2.074.278.333.54.677.738 1.063.285.552.028 1.157-.466 1.19h-3.067c-.792.065-1.422-.255-1.953-.796-.425-.432-.818-.893-1.227-1.34a2.867 2.867 0 00-.552-.49c-.418-.272-.781-.19-1.02.248-.245.444-.3.937-.324 1.431-.034.724-.252.913-.977.947-1.55.072-3.022-.163-4.389-.945-1.206-.69-2.14-1.662-2.953-2.764-1.584-2.148-2.798-4.505-3.888-6.93-.245-.546-.066-.838.537-.85a85.326 85.326 0 013.003 0c.407.006.677.239.833.623.541 1.331 1.204 2.597 2.035 3.772.222.312.448.624.77.845.355.244.626.163.793-.233a2.57 2.57 0 00.177-.792c.08-.925.09-1.85-.049-2.772-.085-.577-.41-.95-.985-1.058-.293-.056-.25-.164-.107-.331.247-.29.478-.468.941-.468l3.465-.001c.546.107.669.352.743.902l.003 3.851c-.006.213.107.844.49.983.306.101.508-.144.69-.338.832-.882 1.424-1.923 1.954-3 .234-.475.436-.967.632-1.46.146-.363.372-.543.784-.536l3.336.004c.099 0 .199 0 .296.017.562.096.716.338.542.887-.273.862-.806 1.58-1.326 2.3-.557.77-1.152 1.514-1.703 2.288-.508.707-.468 1.064.162 1.678z"/></svg></svg>